<?xml version="1.0" encoding="utf-8"?>
<!-- Generator: Adobe Illustrator 18.0.0, SVG Export Plug-In . SVG Version: 6.00 Build 0)  -->
<!DOCTYPE svg PUBLIC "-//W3C//DTD SVG 1.1//EN" "http://www.w3.org/Graphics/SVG/1.1/DTD/svg11.dtd">
<svg version="1.1" id="Logo" xmlns="http://www.w3.org/2000/svg" xmlns:xlink="http://www.w3.org/1999/xlink" x="0px" y="0px"
	 viewBox="0 0 882.5 281.2" enable-background="new 0 0 882.5 281.2" xml:space="preserve">
<g>
	<g>
		<g>
			<g>
				<path d="M27.6,179.1L0,263.7h10.6l8.1-25.1l36.4-0.1l10.7,25.2h10.6l-36.2-84.6H27.6z M22,228.5l12.4-38.7l16.3,38.6L22,228.5z"
					/>
				<polygon points="82.6,179.1 86.7,263.7 96.7,263.7 92.6,179.1 				"/>
				<path d="M169.9,205.3c-0.8-16.1-11.7-26.2-28.3-26.2c0,0-0.1,0-0.1,0h-31.7l4.3,84.6h10l-1.6-32.4l14.9,0l26.4,32.4h12.5
					l-27.1-32.8C162.9,229,170.6,219.4,169.9,205.3z M122,221.9l-1.6-32.5l20.7-0.1c0,0,0.1,0,0.1,0c11.2,0,18.2,6,18.7,16.1
					c0.2,4.8-1,8.9-3.7,11.7c-3,3.1-7.4,4.7-13.4,4.7L122,221.9z"/>
				<path d="M231.6,196.6l0.6,12c-5.6-8.9-14.3-13.9-24.3-13.9c0,0-0.1,0-0.1,0c-7.5,0-14.1,2.8-19.1,8.1
					c-6.1,6.4-9.1,15.9-8.6,26.7c1,20,14,34.5,31,34.5c0,0,0.1,0,0.1,0c9.9,0,18.2-5.1,23-13.9l0.7,13.7h10l-3.4-67.1H231.6z
					 M227.3,247.6c-3.7,3.9-8.9,6.1-14.6,6.1c0,0,0,0-0.1,0c-12.4,0-21.5-10.1-22.3-24.5c-0.4-7.6,1.8-14.3,6-18.8
					c3.5-3.7,8.3-5.7,13.8-5.7c0,0,0,0,0.1,0c12.7,0,22.5,10.3,23.2,24.5C233.8,236.6,231.6,243.1,227.3,247.6z"/>
				<path d="M316.3,195.9C316.3,195.9,316.3,195.9,316.3,195.9c-10,0-17.2,4.5-21.4,13.3l-1.4-30.1h-10l4.1,84.6h10l-1.7-34
					c-0.4-8.1,1.4-14.6,5.3-18.7c3.1-3.3,7.5-5,12.8-5c0,0,0,0,0.1,0c10.2,0,15.7,5.9,16.3,17.6l2,40.2h10l-2.1-42.2
					C339.5,205.5,330.6,195.9,316.3,195.9z"/>
				<polygon points="363.6,179.1 353.6,179.1 354.1,189.6 364.1,189.6 				"/>
				<polygon points="257.7,196.6 261.9,281.2 271.9,281.2 267.7,196.6 				"/>
				<polygon points="266.9,179.1 256.9,179.1 257.4,189.6 267.4,189.6 				"/>
				<g>
					<polygon points="365.9,225 364.5,196.6 354.5,196.6 356.1,228.5 					"/>
				</g>
			</g>
		</g>
		<g>
			<g>
				<polygon points="874.2,0 861,0 866.1,103.4 879.3,103.4 				"/>
				<path d="M817.3,0l4.5,90.2h-26.5L793,53.3h-13.8c0,0,3.2,50.5,3.2,53.5c0,14.7-5.7,23.8-16,23.8c-2.9,0-6.7-0.7-6.7-0.7
					l0.7,13.4c0,0,4.7,0.5,5.5,0.5c20.6,0,30-17.7,30-33.3v-7l39.9,0L830.5,0H817.3z"/>
				<polygon points="740.1,0 745.2,103.4 758.4,103.4 753.3,0 				"/>
				<path d="M709,62.2C694.3,56.1,667.2,41,646.4,41c-6.3,0-11.2,1.5-11.2,1.5l-2.6,13.8c0,0,15.1-1.8,17.1-1.8
					c9.2,0,36.3,11.1,42,13.4c-16.2,5.7-33.9,22.3-56,22.3l-53.8,0c-5.4,0-8.8-0.7-11.5-3.8c9.2-5.5,16.9-10.3,21.8-10.6l12.3,4.9
					l4.5-12.8l-13.3-5.8C581,56.1,553.9,41,533.1,41c-6.3,0-11.2,1.5-11.2,1.5l-2.6,13.8c0,0,15.1-1.8,17.1-1.8
					c9.2,0,36.3,11.1,42,13.4c-16.2,5.7-33.9,22.3-56,22.3h0h-26.2v0l-2.3-36.9c0,0-17,0-18.2,0c-20.6,0-30,17.7-30,33.3l2.2,44.3
					c-2.4,0.2-30.9,0.7-31.9-14.8l-1.6-32.9l-12.9,4.7l1.4,28.2c1.8,28.4,46.1,27.7,46.1,27.7h13.7c0,0-3.4-50.5-3.4-53.5
					c0-14.7,5.7-23.8,16-23.8c1.1,0,5.9-0.1,5.9-0.1l2.5,37h42c11.1,0,22.5-4.7,32.8-10.2c2.6,4.1,6.7,10.2,17.5,10.2l63,0
					c26.8,0,54.9-27,66.7-27.6l12.3,4.9l4.5-12.8L709,62.2z"/>
				<polygon points="481.6,124.7 482.3,138.5 495.4,138.5 494.7,124.7 				"/>
				<polygon points="501,124.7 501.7,138.5 514.8,138.5 514.1,124.7 				"/>
				<polygon points="681.2,113.3 681.9,127.2 695.1,127.2 694.4,113.3 				"/>
			</g>
		</g>
	</g>
	<g>
		<g>
			<path d="M753.5,196.2c-11.3,0-18.8,6.1-22.2,15.7l-0.7-15.2h-9.7l3,67.1h9.7l-1.4-32.4c-0.7-16.5,8.2-25.2,21.6-25.2
				c1.6,0,3,0.1,4.1,0.2l-0.5-9.9C756.6,196.3,755,196.2,753.5,196.2z"/>
			<path d="M411.9,195.9C411.9,195.9,411.9,195.9,411.9,195.9c-9.9,0-17.3,4.7-21.4,13.5l-0.7-12.8h-10l3.4,67.1h10l-1.7-34
				c-0.4-8.1,1.5-14.6,5.4-18.7c3.1-3.3,7.5-5,12.8-5c0,0,0,0,0.1,0c10.1,0,15.7,6.1,16.3,17.6l2,40.2l10,0l-2.1-42.2
				C435.1,205.5,426.1,195.9,411.9,195.9z"/>
			<path d="M709.8,250.8c-4.2,1.7-8.8,3.2-13.3,3.3c0,0,0,0-0.1,0c-9.3,0-14.4-6-15-17.4l-1.5-29.7h27.9l-0.5-10.2h-28l-0.7-17.5
				h-10.2l0.9,17.5h-12l0.5,10.2h12l1.5,30.3c0.8,16.8,9.8,26.7,23.8,26.7c0,0,0.1,0,0.1,0c6.6,0,13.2-2.2,16.8-4.3l0.2-0.1
				l-2.3-8.8L709.8,250.8z"/>
			<path d="M625.9,223.9c-13-3.4-17.6-4.8-17.8-9.8c-0.1-2,0.6-3.8,2-5.3c2.5-2.7,7.2-4.1,13.2-4.2c0,0,0.1,0,0.1,0
				c8.8,0,14.3,3,16.8,9.2l0,0.1h10.1l-0.1-0.3c-3.2-12.2-13.2-19.1-27.6-19.1c0,0-0.1,0-0.1,0c-8.6,0-15.7,2.5-19.9,7
				c-3.3,3.4-4.8,8-4.6,13.3c0.6,11.1,8.7,14.4,25.8,18.8l2.3,0.6c10,2.5,16.1,4.1,16.4,9.9c0.1,2.1-0.6,3.9-2,5.4
				c-2.5,2.7-7.2,4.1-13.3,4.2c-11.6,0-17.7-3.3-20.5-11.5h-10.3c3.4,13.5,15,21.5,31.2,21.5c0,0,0.1,0,0.1,0c8.8,0,16-2.6,20.4-7.2
				c3.3-3.5,4.9-8,4.6-13.4C652,230.6,641.6,228,625.9,223.9z"/>
			<polygon points="878.4,179.1 868.4,179.1 872.5,263.7 882.5,263.7 			"/>
			<path d="M842.4,196.6l0.6,12c-5.6-8.9-14.3-13.9-24.3-13.9c0,0-0.1,0-0.1,0c-7.5,0-14.1,2.8-19.1,8.1c-6.1,6.4-9.1,15.9-8.6,26.7
				c1,20,14,34.5,31,34.5c0,0,0.1,0,0.1,0c9.9,0,18.2-5.1,23-13.9l0.7,13.7h10l-3.4-67.1H842.4z M838.1,247.6
				c-3.7,3.9-8.9,6.1-14.6,6.1c0,0,0,0-0.1,0c-12.4,0-21.5-10.1-22.3-24.5c-0.4-7.6,1.8-14.3,6-18.8c3.5-3.7,8.3-5.7,13.8-5.7
				c0,0,0,0,0.1,0c12.7,0,22.5,10.3,23.2,24.5C844.6,236.6,842.4,243.1,838.1,247.6z"/>
			<polygon points="766.9,196.6 770.2,263.7 780.2,263.7 776.9,196.6 			"/>
			<polygon points="776.1,179.1 766.1,179.1 766.6,189.6 776.6,189.6 			"/>
			<path d="M572,196.6l1.7,34c0.4,8.1-1.5,14.6-5.4,18.7c-3.1,3.3-7.5,5-12.8,5c0,0,0,0-0.1,0c-10.1,0-15.7-6.1-16.3-17.6l-2-40.2
				l-10,0l2.1,42.2c0.8,16.1,9.8,25.7,24,25.7c0,0,0.1,0,0.1,0c9.8,0,17.2-4.7,21.3-13.5l0.7,12.8h10l-3.4-67.1H572z"/>
			<path d="M500.9,179.1l1.4,29.5c-5.6-8.9-14.3-13.9-24.3-13.9c0,0-0.1,0-0.1,0c-7.5,0-14.1,2.8-19.1,8.1
				c-6.1,6.4-9.1,15.9-8.6,26.7c1,20,14,34.5,31,34.5c0,0,0.1,0,0.1,0c9.9,0,18.2-5.1,23-13.9l0.7,13.7h0h10l-4.1-84.6H500.9z
				 M497.3,247.6c-3.7,3.9-8.9,6.1-14.6,6.1c0,0,0,0-0.1,0c-12.4,0-21.5-10.1-22.3-24.5c-0.4-7.6,1.8-14.3,6-18.8
				c3.5-3.7,8.3-5.7,13.8-5.7c0,0,0,0,0.1,0c12.2,0,21.6,9.4,23,22.6l0.2,3.8C503.4,237.7,501.3,243.5,497.3,247.6z"/>
			<polygon points="356.3,233.5 357.8,263.7 367.8,263.7 366.1,230 			"/>
		</g>
		<g>
			<path d="M114.4,89.2c-0.2-0.1-0.5-0.2-0.7-0.3c-2.2-1.1-3.9-2.7-5.2-4.6c-1.3-1.9-2.2-4.1-2.7-6.5s-0.7-4.9-0.7-7.4
				c0-7.1,1.7-12.1,5.2-15.2c3.2-2.8,7.1-4.3,11.7-4.6v-0.1h1.5H137h6.5l-1.4-13.2h-16.7c-7.2,0-13.3,1.3-18.4,4
				c-5.1,2.7-8.9,6.7-11.4,12c-3.1,6.6-3.4,16.7-3.4,17.6c0,7.8,1.5,14.2,4.4,19.3H66.7L64,37.3H39.4c-7.2,0-13.3,1.3-18.4,4
				c-5.1,2.7-8.9,6.7-11.4,12C6.6,59.9,6.2,70,6.2,70.9c0,10.5,2.4,18.8,8,24.2c8.7,8.4,21,8.4,21,8.4h120.3V90.2h-36
				C117.7,90.2,116,89.9,114.4,89.2z M33.4,90.2c-1.7,0-3.4-0.3-4.9-1c-0.3-0.1-0.5-0.2-0.8-0.4c-2.2-1.1-3.9-2.7-5.2-4.6
				c-1.3-1.9-2.2-4.1-2.7-6.5c-0.5-2.4-0.7-4.9-0.7-7.4c0-7.1,1.7-12.1,5.2-15.2c3.5-3.1,7.9-4.6,13.2-4.6h14l2,39.7H33.4z"/>
			<polygon points="44.3,28.1 43.6,14.3 30.4,14.3 31.1,28.1 			"/>
			<polygon points="63.6,28.1 63,14.3 49.8,14.3 50.5,28.1 			"/>
			<polygon points="229.5,34 228.9,20.2 215.7,20.2 216.4,34 			"/>
			<path d="M372.9,103.3l-0.8-30.7c-0.2-8.9-4.4-17.1-11.4-22.6c-7-5.5-16-7.6-24.7-5.7l-57.3,14.2l-0.6-11.9h-13.2l2.2,43.7h-34.6
				h0l-0.7-13.8l-12.9,4.7l0.4,9.1h0H184L179.6,0h-13.2l5.1,103.4L372.9,103.3z M338.8,57.1c4.9-1,9.9,0.2,13.8,3.2
				c3.9,3.1,6.2,7.7,6.4,12.7l0.5,17.2h-79.2l-0.9-18.4L338.8,57.1z"/>
			<polygon points="218.5,74.6 231.4,69.9 230.3,46.5 217.1,46.5 			"/>
		</g>
	</g>
</g>
</svg>
